# xmcd
#
# Track frame offsets: 
#        150
#        18255
#        32509
#        56407
#        70740
#        84450
#        112811
#        139478
#        163182
#        220679
#        254943
#        289859
#        307926
#        325549
#
# Disc length: 4384 seconds
#
# Revision: 6
# Processed by: cddbd v1.5.2PL0 Copyright (c) Steve Scherf et al.
# Submitted via: ExactAudioCopyFreeDBPlugin 1.0
#
DISCID=c0111e0e
DTITLE=Breakout - Oni zaraz przyjdą tu
DYEAR=2001
DGENRE=Blues
TTITLE0=Na drugim brzegu tęczy
TTITLE1=Gdybyś kochał, hej
TTITLE2=Zapraszamy na korridę
TTITLE3=Kiedy byłem małym chłopcem
TTITLE4=Oni zaraz przyjdą tu
TTITLE5=Co stało się kwiatom
TTITLE6=Do kogo idziesz
TTITLE7=Rzeka dzieciństwa
TTITLE8=Wielki ogień
TTITLE9=Modlitwa
TTITLE10=W pochodzie codzienności
TTITLE11=Póki uśmiech ma twarz dziecka
TTITLE12=Dlaczego walczę
TTITLE13=Po ten księżyc złoty
EXTD=YEAR: 2001
EXTT0=
EXTT1=
EXTT2=
EXTT3=
EXTT4=
EXTT5=
EXTT6=
EXTT7=
EXTT8=
EXTT9=
EXTT10=
EXTT11=
EXTT12=
EXTT13=
PLAYORDER=
